<svg width="20" height="20" viewBox="0 0 20 20" fill="none"
    xmlns="http://www.w3.org/2000/svg">
    <g clip-path="url(#clip0_973_6942)">
        <path d="M9.99996 1.66669L11.0845 6.00501C11.2962 6.85156 11.402 7.27483 11.6224 7.61926C11.8173 7.92392 12.0761 8.18264 12.3807 8.37759C12.7251 8.59798 13.1484 8.7038 13.995 8.91544L18.3333 10L13.995 11.0846C13.1484 11.2962 12.7251 11.4021 12.3807 11.6224C12.0761 11.8174 11.8173 12.0761 11.6224 12.3808C11.402 12.7252 11.2962 13.1485 11.0845 13.995L9.99996 18.3334L8.91538 13.995C8.70374 13.1485 8.59792 12.7252 8.37753 12.3808C8.18258 12.0761 7.92386 11.8174 7.6192 11.6224C7.27477 11.4021 6.8515 11.2962 6.00495 11.0846L1.66663 10L6.00495 8.91544C6.8515 8.7038 7.27477 8.59798 7.6192 8.37759C7.92386 8.18264 8.18258 7.92392 8.37753 7.61926C8.59792 7.27483 8.70374 6.85156 8.91538 6.00501L9.99996 1.66669Z" fill="#D8DEFF"/>
        <path d="M9.99996 1.66669L11.0845 6.00501C11.2962 6.85156 11.402 7.27483 11.6224 7.61926C11.8173 7.92392 12.0761 8.18264 12.3807 8.37759C12.7251 8.59798 13.1484 8.7038 13.995 8.91544L18.3333 10L13.995 11.0846C13.1484 11.2962 12.7251 11.4021 12.3807 11.6224C12.0761 11.8174 11.8173 12.0761 11.6224 12.3808C11.402 12.7252 11.2962 13.1485 11.0845 13.995L9.99996 18.3334L8.91538 13.995C8.70374 13.1485 8.59792 12.7252 8.37753 12.3808C8.18258 12.0761 7.92386 11.8174 7.6192 11.6224C7.27477 11.4021 6.8515 11.2962 6.00495 11.0846L1.66663 10L6.00495 8.91544C6.8515 8.7038 7.27477 8.59798 7.6192 8.37759C7.92386 8.18264 8.18258 7.92392 8.37753 7.61926C8.59792 7.27483 8.70374 6.85156 8.91538 6.00501L9.99996 1.66669Z" fill="#D8DEFF"/>
        <path d="M9.99996 1.66669L11.0845 6.00501C11.2962 6.85156 11.402 7.27483 11.6224 7.61926C11.8173 7.92392 12.0761 8.18264 12.3807 8.37759C12.7251 8.59798 13.1484 8.7038 13.995 8.91544L18.3333 10L13.995 11.0846C13.1484 11.2962 12.7251 11.4021 12.3807 11.6224C12.0761 11.8174 11.8173 12.0761 11.6224 12.3808C11.402 12.7252 11.2962 13.1485 11.0845 13.995L9.99996 18.3334L8.91538 13.995C8.70374 13.1485 8.59792 12.7252 8.37753 12.3808C8.18258 12.0761 7.92386 11.8174 7.6192 11.6224C7.27477 11.4021 6.8515 11.2962 6.00495 11.0846L1.66663 10L6.00495 8.91544C6.8515 8.7038 7.27477 8.59798 7.6192 8.37759C7.92386 8.18264 8.18258 7.92392 8.37753 7.61926C8.59792 7.27483 8.70374 6.85156 8.91538 6.00501L9.99996 1.66669Z" stroke="#D8DEFF" stroke-width="2" stroke-linecap="round" stroke-linejoin="round"/>
        <path d="M9.99996 1.66669L11.0845 6.00501C11.2962 6.85156 11.402 7.27483 11.6224 7.61926C11.8173 7.92392 12.0761 8.18264 12.3807 8.37759C12.7251 8.59798 13.1484 8.7038 13.995 8.91544L18.3333 10L13.995 11.0846C13.1484 11.2962 12.7251 11.4021 12.3807 11.6224C12.0761 11.8174 11.8173 12.0761 11.6224 12.3808C11.402 12.7252 11.2962 13.1485 11.0845 13.995L9.99996 18.3334L8.91538 13.995C8.70374 13.1485 8.59792 12.7252 8.37753 12.3808C8.18258 12.0761 7.92386 11.8174 7.6192 11.6224C7.27477 11.4021 6.8515 11.2962 6.00495 11.0846L1.66663 10L6.00495 8.91544C6.8515 8.7038 7.27477 8.59798 7.6192 8.37759C7.92386 8.18264 8.18258 7.92392 8.37753 7.61926C8.59792 7.27483 8.70374 6.85156 8.91538 6.00501L9.99996 1.66669Z" stroke="#D8DEFF" stroke-width="2" stroke-linecap="round" stroke-linejoin="round"/>
    </g>
    <defs>
        <clipPath id="clip0_973_6942">
            <rect width="20" height="20" fill="white"/>
        </clipPath>
    </defs>
</svg>
    