<svg width="25" height="25" viewBox="0 0 25 25" fill="none"
    xmlns="http://www.w3.org/2000/svg">
    <path d="M21.0937 18.2291V16.4062C21.0937 15.3994 20.2776 14.5833 19.2708 14.5833C18.264 14.5833 17.4479 15.3994 17.4479 16.4062V18.2291M22.9166 10.4166H2.08331M22.9166 11.4583V8.54159C22.9166 7.37481 22.9166 6.79142 22.6896 6.34577C22.4898 5.95377 22.1711 5.63506 21.7791 5.43532C21.3335 5.20825 20.7501 5.20825 19.5833 5.20825H5.41665C4.24987 5.20825 3.66648 5.20825 3.22083 5.43532C2.82883 5.63506 2.51012 5.95377 2.31038 6.34577C2.08331 6.79142 2.08331 7.37481 2.08331 8.54159V16.4582C2.08331 17.625 2.08331 18.2084 2.31038 18.6541C2.51012 19.0461 2.82883 19.3648 3.22083 19.5645C3.66648 19.7916 4.24987 19.7916 5.41665 19.7916H11.4583M17.2916 22.3958H21.25C21.8334 22.3958 22.1251 22.3958 22.3479 22.2822C22.5439 22.1823 22.7032 22.023 22.8031 21.827C22.9166 21.6042 22.9166 21.3125 22.9166 20.7291V19.8958C22.9166 19.3124 22.9166 19.0207 22.8031 18.7978C22.7032 18.6018 22.5439 18.4425 22.3479 18.3426C22.1251 18.2291 21.8334 18.2291 21.25 18.2291H17.2916C16.7083 18.2291 16.4166 18.2291 16.1937 18.3426C15.9977 18.4425 15.8384 18.6018 15.7385 18.7978C15.625 19.0207 15.625 19.3124 15.625 19.8958V20.7291C15.625 21.3125 15.625 21.6042 15.7385 21.827C15.8384 22.023 15.9977 22.1823 16.1937 22.2822C16.4166 22.3958 16.7083 22.3958 17.2916 22.3958Z" stroke="#263238" stroke-width="2" stroke-linecap="round" stroke-linejoin="round"/>
</svg>
    