<svg width="14" height="14" viewBox="0 0 14 14" fill="none"
    xmlns="http://www.w3.org/2000/svg">
    <g clip-path="url(#clip0_509_171)">
        <path d="M7 14C10.866 14 14 10.866 14 7C14 3.13401 10.866 0 7 0C3.13401 0 0 3.13401 0 7C0 10.866 3.13401 14 7 14Z" fill="#F0F0F0"/>
        <path d="M1.4471 2.73779C0.897242 3.45319 0.482629 4.27774 0.241211 5.17349H3.88279L1.4471 2.73779Z" fill="#0052B4"/>
        <path d="M13.7592 5.17347C13.5178 4.27774 13.1032 3.45319 12.5533 2.73779L10.1177 5.17347H13.7592Z" fill="#0052B4"/>
        <path d="M0.241211 8.82617C0.482656 9.7219 0.89727 10.5464 1.4471 11.2618L3.88272 8.82617H0.241211Z" fill="#0052B4"/>
        <path d="M11.2614 1.44664C10.546 0.896782 9.72144 0.482168 8.82568 0.240723V3.88228L11.2614 1.44664Z" fill="#0052B4"/>
        <path d="M2.73828 12.5521C3.45368 13.1019 4.27823 13.5165 5.17396 13.758V10.1165L2.73828 12.5521Z" fill="#0052B4"/>
        <path d="M5.17393 0.240723C4.2782 0.482168 3.45365 0.896781 2.73828 1.44661L5.17393 3.88225V0.240723Z" fill="#0052B4"/>
        <path d="M8.82568 13.758C9.72141 13.5165 10.546 13.1019 11.2613 12.5521L8.82568 10.1165V13.758Z" fill="#0052B4"/>
        <path d="M10.1177 8.82617L12.5533 11.2618C13.1032 10.5465 13.5178 9.7219 13.7592 8.82617H10.1177Z" fill="#0052B4"/>
        <path d="M13.9407 6.08696H7.91309H7.91306V0.0592539C7.61417 0.0203438 7.30945 0 7 0C6.6905 0 6.38583 0.0203438 6.08696 0.0592539V6.08691V6.08694H0.0592539C0.0203438 6.38583 0 6.69055 0 7C0 7.3095 0.0203438 7.61417 0.0592539 7.91303H6.08691H6.08694V13.9407C6.38583 13.9797 6.6905 14 7 14C7.30945 14 7.61417 13.9797 7.91303 13.9407V7.91309V7.91306H13.9407C13.9797 7.61417 14 7.3095 14 7C14 6.69055 13.9797 6.38583 13.9407 6.08696Z" fill="#D80027"/>
        <path d="M8.82617 8.82669L11.9498 11.9503C12.0935 11.8067 12.2305 11.6566 12.3613 11.5009L9.68701 8.82666H8.82617V8.82669Z" fill="#D80027"/>
        <path d="M5.17396 8.82666H5.17391L2.05029 11.9503C2.1939 12.0939 2.34405 12.231 2.49969 12.3617L5.17396 9.68741V8.82666Z" fill="#D80027"/>
        <path d="M5.17378 5.17377V5.17372L2.05014 2.05005C1.90648 2.19366 1.76943 2.3438 1.63867 2.49944L4.31297 5.17374H5.17378V5.17377Z" fill="#D80027"/>
        <path d="M8.82617 5.1743L11.9498 2.0506C11.8062 1.90694 11.6561 1.76989 11.5004 1.63916L8.82617 4.31346V5.1743V5.1743Z" fill="#D80027"/>
    </g>
    <defs>
        <clipPath id="clip0_509_171">
            <rect width="14" height="14" fill="white"/>
        </clipPath>
    </defs>
</svg>
    