<svg width="80" height="80" viewBox="0 0 80 80" fill="none"
    xmlns="http://www.w3.org/2000/svg">
    <path d="M40 73.3333C58.4095 73.3333 73.3334 58.4095 73.3334 40C73.3334 21.5905 58.4095 6.66663 40 6.66663C21.5905 6.66663 6.66669 21.5905 6.66669 40C6.66669 58.4095 21.5905 73.3333 40 73.3333Z" stroke="#C4B3FF" stroke-width="2" stroke-linecap="round" stroke-linejoin="round"/>
    <path d="M31.6667 29.8844C31.6667 28.2935 31.6667 27.498 31.9992 27.0539C32.2889 26.6669 32.7324 26.4247 33.2146 26.3903C33.768 26.3508 34.4371 26.7809 35.7754 27.6413L51.5107 37.7568C52.672 38.5034 53.2526 38.8766 53.4532 39.3513C53.6284 39.766 53.6284 40.2339 53.4532 40.6487C53.2526 41.1233 52.672 41.4966 51.5107 42.2431L35.7754 52.3587C34.4371 53.219 33.768 53.6491 33.2146 53.6096C32.7324 53.5752 32.2889 53.333 31.9992 52.946C31.6667 52.5019 31.6667 51.7065 31.6667 50.1155V29.8844Z" stroke="#C4B3FF" stroke-width="2" stroke-linecap="round" stroke-linejoin="round"/>
</svg>
    