<svg width="25" height="25" viewBox="0 0 25 25" fill="none" xmlns="http://www.w3.org/2000/svg">
<path d="M13.5417 7.81239L10.4167 10.9374L14.5834 13.0207L11.4584 16.1457M20.8334 12.4999C20.8334 17.6128 15.2563 21.3315 13.2271 22.5154C12.9965 22.6499 12.8812 22.7172 12.7184 22.7521C12.5921 22.7792 12.4079 22.7792 12.2816 22.7521C12.1189 22.7172 12.0036 22.6499 11.7729 22.5154C9.74373 21.3315 4.16669 17.6128 4.16669 12.4999V7.51822C4.16669 6.6854 4.16669 6.26898 4.3029 5.91104C4.42322 5.59482 4.61875 5.31267 4.87258 5.08898C5.15991 4.83576 5.54981 4.68955 6.32961 4.39712L11.9148 2.30267C12.1314 2.22146 12.2397 2.18086 12.351 2.16476C12.4498 2.15048 12.5502 2.15048 12.649 2.16476C12.7604 2.18086 12.8687 2.22146 13.0852 2.30267L18.6704 4.39712C19.4502 4.68955 19.8401 4.83576 20.1275 5.08898C20.3813 5.31267 20.5768 5.59482 20.6971 5.91104C20.8334 6.26898 20.8334 6.6854 20.8334 7.51822V12.4999Z" stroke="#263238" stroke-width="2" stroke-linecap="round" stroke-linejoin="round"/>
</svg>
